<svg width="36" height="35" viewBox="0 0 36 35" fill="none" xmlns="http://www.w3.org/2000/svg">
<path d="M5.5 0H16.5C17.9587 0 19.3576 0.579463 20.3891 1.61091C21.4205 2.64236 22 4.04131 22 5.5V12.8333H20.1667V5.5C20.1667 4.52754 19.7804 3.59491 19.0927 2.90728C18.4051 2.21964 17.4725 1.83333 16.5 1.83333H5.5C4.52754 1.83333 3.59491 2.21964 2.90727 2.90728C2.21964 3.59491 1.83333 4.52754 1.83333 5.5V29.3333C1.83333 30.3058 2.21964 31.2384 2.90727 31.9261C3.59491 32.6137 4.52754 33 5.5 33H16.5C17.4725 33 18.4051 32.6137 19.0927 31.9261C19.7804 31.2384 20.1667 30.3058 20.1667 29.3333V22H22V29.3333C22 30.792 21.4205 32.191 20.3891 33.2224C19.3576 34.2539 17.9587 34.8333 16.5 34.8333H5.5C4.04131 34.8333 2.64236 34.2539 1.61091 33.2224C0.579463 32.191 0 30.792 0 29.3333V5.5C0 4.04131 0.579463 2.64236 1.61091 1.61091C2.64236 0.579463 4.04131 0 5.5 0ZM11 16.5H31.625L25.6667 10.5417L26.8767 9.16667L35.1267 17.4167L26.8767 25.6667L25.6667 24.2917L31.625 18.3333H11V16.5Z" fill="#9E0000"/>
</svg>
