<svg width="72" height="69" viewBox="0 0 72 69" fill="none" xmlns="http://www.w3.org/2000/svg">
<g clip-path="url(#clip0_942_5)">
<path d="M5.71635 16.5575L0.573975 4.99992C34.0076 15.7977 62.0104 9.499 71.8327 4.99992C52.2427 19.7419 19.5926 18.8474 5.71635 16.5575Z" fill="white"/>
<path d="M66.2762 22.7127L71.4245 31.4284C37.9525 23.2856 9.91769 28.0356 0.0842285 31.4284C19.6966 20.3113 52.3842 20.9859 66.2762 22.7127Z" fill="white"/>
<path d="M18.7929 59.534L8.08398 61.3573C20.8369 41.1998 17.9577 22.3369 14.9238 15.4251C26.0731 29.9547 22.1488 50.8851 18.7929 59.534Z" fill="white"/>
<path d="M48.8845 58.7264L59.5932 60.5498C46.8402 40.3922 49.7196 21.5294 52.7533 14.6175C41.604 29.1472 45.5285 50.0775 48.8845 58.7264Z" fill="white"/>
<path d="M4.16602 63.9984C11.0633 62.2906 33.4531 59.8999 67.8336 63.9984H4.16602Z" fill="white"/>
</g>
<defs>
<clipPath id="clip0_942_5">
<rect width="72" height="59" fill="white" transform="translate(0 5)"/>
</clipPath>
</defs>
</svg>
