<svg width="45" height="45" viewBox="0 0 45 45" fill="none" xmlns="http://www.w3.org/2000/svg">
<path d="M2.5 37.5C2.5 34.8478 3.55357 32.3043 5.42893 30.4289C7.3043 28.5536 9.84784 27.5 12.5 27.5H32.5C35.1522 27.5 37.6957 28.5536 39.5711 30.4289C41.4464 32.3043 42.5 34.8478 42.5 37.5C42.5 38.8261 41.9732 40.0979 41.0355 41.0355C40.0979 41.9732 38.8261 42.5 37.5 42.5H7.5C6.17392 42.5 4.90215 41.9732 3.96447 41.0355C3.02678 40.0979 2.5 38.8261 2.5 37.5Z" stroke="white" stroke-width="5" stroke-linejoin="round"/>
<path d="M22.5 17.5C26.6421 17.5 30 14.1421 30 10C30 5.85786 26.6421 2.5 22.5 2.5C18.3579 2.5 15 5.85786 15 10C15 14.1421 18.3579 17.5 22.5 17.5Z" stroke="white" stroke-width="5"/>
</svg>
